<svg width="1592" height="209" viewBox="0 0 1592 209" fill="none" xmlns="http://www.w3.org/2000/svg">
<path d="M2.41955 169.608L2.66141 105.975V43.7932C11.8554 45.7288 29.7596 45.7288 38.9536 43.7932V169.608H2.41955ZM0 17.1785C0 5.56487 6.53265 0 20.8076 0C35.3244 0 41.615 5.56487 41.615 17.1785C41.615 29.0341 35.3244 34.1151 20.8076 34.1151C6.53265 34.1151 0 29.0341 0 17.1785Z" fill="white"/>
<path d="M47.5541 169.608V40.6478H83.8463V57.5844H84.3302C91.5886 45.9707 102.96 37.2605 122.074 37.2605C150.624 37.2605 165.867 52.7454 165.867 89.28V169.608H129.574V94.8449C129.574 76.9405 122.074 68.2302 108.283 68.2302C92.7984 68.2302 83.8463 80.3278 83.8463 99.4419V169.608H47.5541Z" fill="white"/>
<path d="M219.462 173.237C179.057 173.237 178.089 150.736 178.089 121.701V68.4722H160.426V40.6478H178.089V8.4683H213.897V40.6478H240.027V68.4722H213.897V122.911C213.897 137.67 217.526 144.203 228.898 144.203C234.946 144.203 239.06 142.993 242.205 142.025L249.463 167.914C240.753 171.06 229.624 173.237 219.462 173.237Z" fill="white"/>
<path d="M294.265 173.237C255.07 173.237 229.665 146.622 229.665 105.249C229.665 63.6332 253.618 37.5024 292.088 37.5024C337.574 37.5024 353.059 71.3756 353.059 112.749H265.473C267.651 134.767 279.265 144.929 295.233 144.929C309.508 144.929 318.702 134.041 321.605 119.04L352.333 127.266C347.978 149.042 332.009 173.237 294.265 173.237ZM266.199 90.9737H318.46C317.492 75.2468 309.024 65.3268 293.539 65.3268C280.232 65.3268 269.587 71.3756 266.199 90.9737Z" fill="white"/>
<path d="M349.28 169.608L349.522 107.91L349.28 40.6478H385.572L384.846 60.2459H385.33C389.927 49.1161 401.057 37.2605 422.106 37.2605C424.284 37.2605 427.187 37.5024 428.881 37.9863L428.639 73.5532C424.526 72.5854 421.138 72.3434 417.993 72.3434C396.218 72.3434 385.33 84.6829 385.33 109.12V115.169L385.572 169.608H349.28Z" fill="white"/>
<path d="M462.459 173.237C431.247 173.237 409.472 150.494 409.472 105.249C409.472 60.0039 430.763 37.2605 462.459 37.2605C480.605 37.2605 492.218 47.4224 498.751 55.8907H499.235V1.69366H536.011V169.608H499.235V154.365H498.509C492.46 163.075 480.605 173.237 462.459 173.237ZM446.006 105.249C446.006 129.928 455.442 143.235 472.862 143.235C485.686 143.235 499.477 134.525 499.477 105.007C499.477 79.118 487.863 67.2624 472.862 67.2624C455.442 67.2624 446.006 80.8117 446.006 105.249Z" fill="white"/>
<path d="M596.7 173.237C557.504 173.237 532.1 146.622 532.1 105.249C532.1 63.6332 556.053 37.5024 594.523 37.5024C640.009 37.5024 655.493 71.3756 655.493 112.749H567.908C570.086 134.767 581.699 144.929 597.668 144.929C611.943 144.929 621.137 134.041 624.04 119.04L654.768 127.266C650.413 149.042 634.444 173.237 596.7 173.237ZM568.634 90.9737H620.895C619.927 75.2468 611.459 65.3268 595.974 65.3268C582.667 65.3268 572.021 71.3756 568.634 90.9737Z" fill="white"/>
<path d="M651.715 208.32V40.6478H688.491L688.249 55.8907H688.733C694.782 47.1805 706.879 37.2605 725.267 37.2605C756.478 37.2605 778.253 59.7619 778.253 105.007C778.253 150.252 756.962 173.237 725.267 173.237C706.879 173.237 695.023 162.833 688.491 154.365H688.007L688.491 208.32H651.715ZM688.007 105.249C688.007 134.283 701.798 143.235 714.863 143.235C732.042 143.235 741.477 129.444 741.477 105.007C741.477 80.3278 732.042 67.2624 714.863 67.2624C699.862 67.2624 688.007 79.36 688.007 105.249Z" fill="white"/>
<path d="M832.741 173.237C793.545 173.237 768.141 146.622 768.141 105.249C768.141 63.6332 792.094 37.5024 830.563 37.5024C876.049 37.5024 891.534 71.3756 891.534 112.749H803.949C806.127 134.767 817.74 144.929 833.709 144.929C847.984 144.929 857.178 134.041 860.081 119.04L890.808 127.266C886.453 149.042 870.485 173.237 832.741 173.237ZM804.675 90.9737H856.936C855.968 75.2468 847.5 65.3268 832.015 65.3268C818.708 65.3268 808.062 71.3756 804.675 90.9737Z" fill="white"/>
<path d="M887.756 169.608V40.6478H924.048V57.5844H924.532C931.79 45.9707 943.162 37.2605 962.276 37.2605C990.825 37.2605 1006.07 52.7454 1006.07 89.28V169.608H969.776V94.8449C969.776 76.9405 962.276 68.2302 948.484 68.2302C933 68.2302 924.048 80.3278 924.048 99.4419V169.608H887.756Z" fill="white"/>
<path d="M1055.28 173.237C1024.07 173.237 1002.29 150.494 1002.29 105.249C1002.29 60.0039 1023.58 37.2605 1055.28 37.2605C1073.42 37.2605 1085.04 47.4224 1091.57 55.8907H1092.05V1.69366H1128.83V169.608H1092.05V154.365H1091.33C1085.28 163.075 1073.42 173.237 1055.28 173.237ZM1038.83 105.249C1038.83 129.928 1048.26 143.235 1065.68 143.235C1078.51 143.235 1092.3 134.525 1092.3 105.007C1092.3 79.118 1080.68 67.2624 1065.68 67.2624C1048.26 67.2624 1038.83 80.8117 1038.83 105.249Z" fill="white"/>
<path d="M1189.52 173.237C1150.32 173.237 1124.92 146.622 1124.92 105.249C1124.92 63.6332 1148.87 37.5024 1187.34 37.5024C1232.83 37.5024 1248.31 71.3756 1248.31 112.749H1160.73C1162.91 134.767 1174.52 144.929 1190.49 144.929C1204.76 144.929 1213.96 134.041 1216.86 119.04L1247.59 127.266C1243.23 149.042 1227.26 173.237 1189.52 173.237ZM1161.45 90.9737H1213.71C1212.75 75.2468 1204.28 65.3268 1188.79 65.3268C1175.49 65.3268 1164.84 71.3756 1161.45 90.9737Z" fill="white"/>
<path d="M1244.53 169.608V40.6478H1280.83V57.5844H1281.31C1288.57 45.9707 1299.94 37.2605 1319.05 37.2605C1347.6 37.2605 1362.85 52.7454 1362.85 89.28V169.608H1326.55V94.8449C1326.55 76.9405 1319.05 68.2302 1305.26 68.2302C1289.78 68.2302 1280.83 80.3278 1280.83 99.4419V169.608H1244.53Z" fill="white"/>
<path d="M1424.64 173.237C1384.23 173.237 1359.07 147.106 1359.07 105.249C1359.07 63.3912 1384.23 37.2605 1423.67 37.2605C1458.75 37.2605 1478.59 56.3746 1482.95 82.9893L1450.04 91.6995C1447.38 75.2468 1437.95 66.2946 1424.15 66.2946C1407.7 66.2946 1395.85 78.6341 1395.85 105.249C1395.85 131.621 1407.7 144.203 1424.15 144.203C1437.46 144.203 1447.38 135.251 1450.04 118.556L1482.95 127.266C1478.59 154.123 1458.75 173.237 1424.64 173.237Z" fill="white"/>
<path d="M1533.07 173.237C1493.87 173.237 1468.47 146.622 1468.47 105.249C1468.47 63.6332 1492.42 37.5024 1530.89 37.5024C1576.37 37.5024 1591.86 71.3756 1591.86 112.749H1504.27C1506.45 134.767 1518.07 144.929 1534.03 144.929C1548.31 144.929 1557.5 134.041 1560.41 119.04L1591.13 127.266C1586.78 149.042 1570.81 173.237 1533.07 173.237ZM1505 90.9737H1557.26C1556.29 75.2468 1547.83 65.3268 1532.34 65.3268C1519.03 65.3268 1508.39 71.3756 1505 90.9737Z" fill="white"/>
</svg>
