<svg width="604" height="457" viewBox="0 0 604 457" fill="none" xmlns="http://www.w3.org/2000/svg">
<path d="M603.296 312.176V230.955C603.296 194.014 587.871 178.349 559.01 178.349C539.683 178.349 528.179 187.157 520.838 198.9H520.355V181.767H483.651V222.629C476.632 196.688 459.235 178.59 425.809 178.59C398.034 178.59 377.742 192.063 368.41 215.088C360.445 190.575 342.445 178.349 319.317 178.349C300.713 178.349 288.485 188.383 282.371 197.191H281.888L282.13 181.788H244.943V222.629C237.924 196.688 220.527 178.59 187.101 178.59C157.396 178.59 136.258 194.014 127.932 220.015V142.373V100.546C127.932 81.2212 136.821 68.9948 152.488 68.9948C166.446 68.9948 174.028 77.8027 174.028 95.901V171.492H210.732V90.2704C210.732 82.287 210.008 75.289 208.58 69.2361H223.081V123.069C223.081 152.428 224.067 175.172 264.934 175.172C275.211 175.172 286.474 172.98 295.283 169.782L290.858 154.017C302.282 167.51 319.457 175.151 340.595 175.151C372.814 175.151 389.346 157.737 396.365 139.055L396.245 171.471H432.949L432.707 116.432V110.319C432.707 85.605 443.709 73.1373 465.751 73.1373C468.929 73.1373 472.348 73.3786 476.511 74.364L476.752 38.4087C475.043 37.926 472.107 37.6847 469.894 37.6847C448.616 37.6847 437.353 49.6698 432.707 60.931H432.225L432.949 41.1234H396.245L396.385 82.5484C389.467 56.3059 372.07 37.9461 338.403 37.9461C314.651 37.9461 296.389 47.7997 285.75 65.0534V41.1234H259.323V8.56655H223.101V41.1033H205.242V59.2619C198.404 44.361 185.291 37.6847 166.446 37.6847C147.601 37.6847 135.614 46.4926 128.274 58.2364H127.791V41.1033H90.765V142.394V197.191H90.2823C83.6856 188.625 71.9402 178.349 53.5781 178.349C21.5197 178.349 0 201.354 0 247.102C0 292.851 22.0225 315.856 53.5781 315.856C71.9201 315.856 83.9269 305.58 90.0409 296.772H90.765V337.875H90.2823C83.6856 329.309 71.9402 319.033 53.5781 319.033C21.5197 319.033 0 342.038 0 387.787C0 433.535 22.0225 456.54 53.5781 456.54C71.9201 456.54 83.9269 446.264 90.0409 437.456H90.765V452.86H127.952V414.13C136.58 440.553 158.803 456.52 189.333 456.52C221.351 456.52 237.883 439.286 244.963 420.746V452.86H281.667V381.915C281.667 362.59 290.717 350.343 306.385 350.343C320.342 350.343 327.924 359.151 327.924 377.249V452.84H364.629V413.969C373.156 440.714 395.52 456.52 427.116 456.52C454.066 456.52 472.167 444.696 480.916 426.597C491.776 445.48 511.425 456.52 536.786 456.52C574.959 456.52 591.109 432.047 595.513 410.027L564.44 401.702C561.504 416.864 552.212 427.884 537.772 427.884C521.622 427.884 509.877 417.609 507.664 395.348H596.237C596.237 353.52 580.57 319.254 534.574 319.254C509.897 319.254 491.132 329.892 480.714 348.413C471.845 330.656 453.664 319.013 426.151 319.013C394.897 319.013 372.533 335.241 364.287 362.61C361.893 332.124 346.749 319.013 320.342 319.013C301.015 319.013 289.511 327.821 282.17 339.565H282.069L281.687 296.752H282.17C288.767 305.319 300.773 315.836 319.357 315.836C342.868 315.836 360.707 303.308 368.55 278.573C378.264 301.92 399.563 315.836 428.041 315.836C460.06 315.836 476.592 298.602 483.671 280.061V312.176H520.375V241.23C520.375 221.905 529.425 209.659 545.093 209.659C559.03 209.659 566.632 218.467 566.632 236.565V312.156H603.337L603.296 312.176ZM339.811 66.0589C355.478 66.0589 364.025 76.0934 365.011 91.9998H312.157C315.576 72.1922 326.356 66.0589 339.811 66.0589ZM396.405 114.019L396.345 127.915L368.188 120.374C365.252 135.536 355.96 146.556 341.52 146.556C325.37 146.556 313.625 136.28 311.413 114.019H396.385H396.405ZM259.283 69.2361H283.316C278.047 79.532 275.231 92.0601 275.231 106.418C275.231 120.776 278.449 134.088 284.342 144.606C281.727 145.249 278.53 145.792 274.467 145.792C262.963 145.792 259.303 139.196 259.303 124.255V69.216L259.283 69.2361ZM536.002 347.407C551.669 347.407 560.217 357.442 561.202 373.348H508.348C511.767 353.52 522.547 347.407 536.002 347.407ZM426.573 348.393C440.531 348.393 450.064 357.442 452.759 374.092L473.253 368.663C472.026 374.595 471.383 380.99 471.383 387.787C471.383 394.583 472.046 400.797 473.313 406.689L452.739 401.24C450.044 418.131 440.008 427.181 426.553 427.181C409.921 427.181 397.934 414.451 397.934 387.787C397.934 361.122 409.921 348.393 426.553 348.393H426.573ZM188.549 206.743C204.216 206.743 212.764 216.778 213.749 232.684H160.895C164.314 212.876 175.094 206.743 188.549 206.743ZM244.923 254.683V268.539L216.927 261.038C213.991 276.2 204.699 287.22 190.258 287.22C174.109 287.22 162.363 276.944 160.171 254.683H244.923ZM64.0564 285.511C46.4384 285.511 36.9053 272.058 36.9053 247.102C36.9053 222.147 46.4384 208.694 64.0564 208.694C79.2207 208.694 90.9661 220.679 90.9661 246.861C90.9661 276.703 77.0285 285.511 64.0564 285.511ZM64.0564 426.195C46.4384 426.195 36.9053 412.742 36.9053 387.787C36.9053 362.831 46.4384 349.378 64.0564 349.378C79.2207 349.378 90.9661 361.363 90.9661 387.545C90.9661 417.387 77.0285 426.195 64.0564 426.195ZM127.912 360.699V273.445C136.54 299.869 158.763 315.836 189.293 315.836C221.311 315.836 237.843 298.602 244.923 280.061V363.293C237.904 337.353 220.507 319.254 187.081 319.254C157.376 319.254 136.238 334.678 127.912 360.679V360.699ZM213.749 373.348H160.895C164.314 353.52 175.094 347.407 188.549 347.407C204.216 347.407 212.764 357.442 213.749 373.348ZM216.947 401.722C214.011 416.885 204.719 427.904 190.279 427.904C174.129 427.904 162.383 417.629 160.191 395.368H244.943V409.223L216.947 401.722ZM308.798 285.511C295.584 285.511 281.647 276.462 281.647 247.102C281.647 220.92 293.634 208.694 308.798 208.694C326.175 208.694 335.708 221.905 335.708 246.861C335.708 271.817 326.175 285.511 308.798 285.511ZM427.277 206.743C442.944 206.743 451.492 216.778 452.477 232.684H399.623C403.042 212.876 413.822 206.743 427.277 206.743ZM455.655 261.058C452.719 276.22 443.427 287.24 428.987 287.24C412.837 287.24 401.091 276.965 398.899 254.704H483.651V268.559L455.655 261.058Z" fill="white"/>
<path d="M63.6742 34.4873C78.3558 34.4873 84.7112 29.3595 84.7112 17.3543C84.7112 5.34906 78.3558 0 63.6742 0C48.9925 0 42.6371 5.63059 42.6371 17.3744C42.6371 29.1182 49.2338 34.5074 63.6742 34.5074V34.4873Z" fill="white"/>
<path d="M45.3119 44.2805V107.162L45.0706 171.512H82.0161V44.2805C72.7244 46.2311 54.6036 46.2311 45.3119 44.2805Z" fill="white"/>
</svg>
