<svg width="1592" height="260" viewBox="0 0 1592 260" fill="none" xmlns="http://www.w3.org/2000/svg">
<path d="M2.41955 169.608L2.66141 105.975V43.7932C11.8554 45.7288 29.7596 45.7288 38.9536 43.7932V169.608H2.41955ZM0 17.1785C0 5.56487 6.53265 0 20.8076 0C35.3244 0 41.615 5.56487 41.615 17.1785C41.615 29.0341 35.3244 34.1151 20.8076 34.1151C6.53265 34.1151 0 29.0341 0 17.1785Z" fill="white"/>
<path d="M47.5541 169.608V40.6478H83.8463V57.5844H84.3302C91.5886 45.9707 102.96 37.2605 122.074 37.2605C150.624 37.2605 165.867 52.7454 165.867 89.28V169.608H129.574V94.8449C129.574 76.9405 122.074 68.2302 108.283 68.2302C92.7984 68.2302 83.8463 80.3278 83.8463 99.4419V169.608H47.5541Z" fill="white"/>
<path d="M219.462 173.237C179.057 173.237 178.089 150.736 178.089 121.701V68.4722H160.426V40.6478H178.089V8.4683H213.897V40.6478H240.027V68.4722H213.897V122.911C213.897 137.67 217.526 144.203 228.898 144.203C234.946 144.203 239.06 142.993 242.205 142.025L249.463 167.914C240.753 171.06 229.624 173.237 219.462 173.237Z" fill="white"/>
<path d="M294.265 173.237C255.07 173.237 229.665 146.622 229.665 105.249C229.665 63.6332 253.618 37.5024 292.088 37.5024C337.574 37.5024 353.059 71.3756 353.059 112.749H265.473C267.651 134.767 279.265 144.929 295.233 144.929C309.508 144.929 318.702 134.041 321.605 119.04L352.333 127.266C347.978 149.042 332.009 173.237 294.265 173.237ZM266.199 90.9737H318.46C317.492 75.2468 309.024 65.3268 293.539 65.3268C280.232 65.3268 269.587 71.3756 266.199 90.9737Z" fill="white"/>
<path d="M349.28 169.608L349.522 107.91L349.28 40.6478H385.572L384.846 60.2459H385.33C389.927 49.1161 401.057 37.2605 422.106 37.2605C424.284 37.2605 427.187 37.5024 428.881 37.9863L428.639 73.5532C424.526 72.5854 421.138 72.3434 417.993 72.3434C396.218 72.3434 385.33 84.6829 385.33 109.12V115.169L385.572 169.608H349.28Z" fill="white"/>
<path d="M462.459 173.237C431.247 173.237 409.472 150.494 409.472 105.249C409.472 60.0039 430.763 37.2605 462.459 37.2605C480.605 37.2605 492.218 47.4224 498.751 55.8907H499.235V1.69366H536.011V169.608H499.235V154.365H498.509C492.46 163.075 480.605 173.237 462.459 173.237ZM446.006 105.249C446.006 129.928 455.442 143.235 472.862 143.235C485.686 143.235 499.477 134.525 499.477 105.007C499.477 79.118 487.863 67.2624 472.862 67.2624C455.442 67.2624 446.006 80.8117 446.006 105.249Z" fill="white"/>
<path d="M596.7 173.237C557.504 173.237 532.1 146.622 532.1 105.249C532.1 63.6332 556.053 37.5024 594.523 37.5024C640.009 37.5024 655.493 71.3756 655.493 112.749H567.908C570.086 134.767 581.699 144.929 597.668 144.929C611.943 144.929 621.137 134.041 624.04 119.04L654.768 127.266C650.413 149.042 634.444 173.237 596.7 173.237ZM568.634 90.9737H620.895C619.927 75.2468 611.459 65.3268 595.974 65.3268C582.667 65.3268 572.021 71.3756 568.634 90.9737Z" fill="white"/>
<path d="M651.715 208.32V40.6478H688.491L688.249 55.8907H688.733C694.782 47.1805 706.879 37.2605 725.267 37.2605C756.478 37.2605 778.253 59.7619 778.253 105.007C778.253 150.252 756.962 173.237 725.267 173.237C706.879 173.237 695.023 162.833 688.491 154.365H688.007L688.491 208.32H651.715ZM688.007 105.249C688.007 134.283 701.798 143.235 714.863 143.235C732.042 143.235 741.477 129.444 741.477 105.007C741.477 80.3278 732.042 67.2624 714.863 67.2624C699.862 67.2624 688.007 79.36 688.007 105.249Z" fill="white"/>
<path d="M832.741 173.237C793.545 173.237 768.141 146.622 768.141 105.249C768.141 63.6332 792.094 37.5024 830.563 37.5024C876.049 37.5024 891.534 71.3756 891.534 112.749H803.949C806.127 134.767 817.74 144.929 833.709 144.929C847.984 144.929 857.178 134.041 860.081 119.04L890.808 127.266C886.453 149.042 870.485 173.237 832.741 173.237ZM804.675 90.9737H856.936C855.968 75.2468 847.5 65.3268 832.015 65.3268C818.708 65.3268 808.062 71.3756 804.675 90.9737Z" fill="white"/>
<path d="M887.756 169.608V40.6478H924.048V57.5844H924.532C931.79 45.9707 943.162 37.2605 962.276 37.2605C990.825 37.2605 1006.07 52.7454 1006.07 89.28V169.608H969.776V94.8449C969.776 76.9405 962.276 68.2302 948.484 68.2302C933 68.2302 924.048 80.3278 924.048 99.4419V169.608H887.756Z" fill="white"/>
<path d="M1055.28 173.237C1024.07 173.237 1002.29 150.494 1002.29 105.249C1002.29 60.0039 1023.58 37.2605 1055.28 37.2605C1073.42 37.2605 1085.04 47.4224 1091.57 55.8907H1092.05V1.69366H1128.83V169.608H1092.05V154.365H1091.33C1085.28 163.075 1073.42 173.237 1055.28 173.237ZM1038.83 105.249C1038.83 129.928 1048.26 143.235 1065.68 143.235C1078.51 143.235 1092.3 134.525 1092.3 105.007C1092.3 79.118 1080.68 67.2624 1065.68 67.2624C1048.26 67.2624 1038.83 80.8117 1038.83 105.249Z" fill="white"/>
<path d="M1189.52 173.237C1150.32 173.237 1124.92 146.622 1124.92 105.249C1124.92 63.6332 1148.87 37.5024 1187.34 37.5024C1232.83 37.5024 1248.31 71.3756 1248.31 112.749H1160.73C1162.91 134.767 1174.52 144.929 1190.49 144.929C1204.76 144.929 1213.96 134.041 1216.86 119.04L1247.59 127.266C1243.23 149.042 1227.26 173.237 1189.52 173.237ZM1161.45 90.9737H1213.71C1212.75 75.2468 1204.28 65.3268 1188.79 65.3268C1175.49 65.3268 1164.84 71.3756 1161.45 90.9737Z" fill="white"/>
<path d="M1244.53 169.608V40.6478H1280.83V57.5844H1281.31C1288.57 45.9707 1299.94 37.2605 1319.05 37.2605C1347.6 37.2605 1362.85 52.7454 1362.85 89.28V169.608H1326.55V94.8449C1326.55 76.9405 1319.05 68.2302 1305.26 68.2302C1289.78 68.2302 1280.83 80.3278 1280.83 99.4419V169.608H1244.53Z" fill="white"/>
<path d="M1424.64 173.237C1384.23 173.237 1359.07 147.106 1359.07 105.249C1359.07 63.3912 1384.23 37.2605 1423.67 37.2605C1458.75 37.2605 1478.59 56.3746 1482.95 82.9893L1450.04 91.6995C1447.38 75.2468 1437.95 66.2946 1424.15 66.2946C1407.7 66.2946 1395.85 78.6341 1395.85 105.249C1395.85 131.621 1407.7 144.203 1424.15 144.203C1437.46 144.203 1447.38 135.251 1450.04 118.556L1482.95 127.266C1478.59 154.123 1458.75 173.237 1424.64 173.237Z" fill="white"/>
<path d="M1533.07 173.237C1493.87 173.237 1468.47 146.622 1468.47 105.249C1468.47 63.6332 1492.42 37.5024 1530.89 37.5024C1576.37 37.5024 1591.86 71.3756 1591.86 112.749H1504.27C1506.45 134.767 1518.07 144.929 1534.03 144.929C1548.31 144.929 1557.5 134.041 1560.41 119.04L1591.13 127.266C1586.78 149.042 1570.81 173.237 1533.07 173.237ZM1505 90.9737H1557.26C1556.29 75.2468 1547.83 65.3268 1532.34 65.3268C1519.03 65.3268 1508.39 71.3756 1505 90.9737Z" fill="white"/>
<path d="M299.95 259.6C288.91 259.6 282.67 253.2 282.67 246.88L289.15 245.04C289.15 250.48 293.15 254 299.95 254C310.27 254 311.71 246.8 311.71 238.4V236.32H311.55C309.95 239.44 305.71 243.76 298.27 243.76C287.31 243.76 281.15 235.84 281.15 223.2C281.15 212.16 286.83 202.64 298.11 202.64C305.63 202.64 309.87 206.88 311.55 210H311.71L311.63 203.68H318.83V236.64C318.83 252.64 312.91 259.6 299.95 259.6ZM288.19 223.2C288.19 232.16 292.43 238 299.71 238C305.15 238 311.79 234.88 311.79 223.2C311.79 216.72 308.59 208.4 299.71 208.4C292.83 208.4 288.19 214.24 288.19 223.2Z" fill="white"/>
<path d="M238.481 245.76L238.641 225.44L238.481 203.68H245.521L245.361 210.08H245.521C247.601 206.08 252.321 202.64 259.121 202.64C268.401 202.64 273.521 208.08 273.521 220.56V225.44L273.681 245.76H266.641L266.801 225.44V220.64C266.801 212.24 262.881 208.56 257.041 208.56C250.641 208.56 245.361 214 245.361 222.32V225.44L245.521 245.76H238.481Z" fill="white"/>
<path d="M221.059 245.76L221.219 224.72L221.059 203.68H228.099L227.939 224.72L228.099 245.76H221.059ZM220.259 194.32C220.259 191.44 221.699 190 224.579 190C227.459 190 228.899 191.44 228.899 194.32C228.899 197.28 227.459 198.72 224.579 198.72C221.699 198.72 220.259 197.28 220.259 194.32Z" fill="white"/>
<path d="M192.622 245.76L192.782 225.52L192.622 203.68H199.662L199.422 210.32H199.582C201.022 206.4 205.342 202.64 211.902 202.64C212.782 202.64 213.982 202.72 215.022 202.96L214.942 209.6C213.582 209.2 212.462 209.04 211.502 209.04C203.982 209.04 199.502 214.08 199.502 224.24V225.44L199.662 245.76H192.622Z" fill="white"/>
<path d="M165.281 246.96C153.201 246.96 145.681 238.4 145.681 224.72C145.681 211.12 153.201 202.64 165.281 202.64C177.441 202.64 185.041 211.12 185.041 224.72C185.041 238.4 177.441 246.96 165.281 246.96ZM152.721 224.72C152.721 235.12 157.521 241.12 165.281 241.12C173.121 241.12 178.001 235.12 178.001 224.72C178.001 214.48 173.121 208.48 165.281 208.48C157.521 208.48 152.721 214.48 152.721 224.72Z" fill="white"/>
<path d="M131.059 245.76L131.219 217.6L131.059 190.24H138.099L137.939 217.6L138.099 245.76H131.059Z" fill="white"/>
<path d="M85.7466 258.56L85.9066 227.84L85.7466 203.68H93.0266L92.8666 209.92H93.0266C94.6266 206.8 98.9466 202.64 106.307 202.64C117.267 202.64 123.427 210.4 123.427 224.64C123.427 238.88 117.267 246.96 106.307 246.96C98.9466 246.96 94.7066 242.56 92.9466 239.36H92.7866L93.0266 258.56H85.7466ZM92.7866 224.8C92.7866 238 99.5866 241.2 104.627 241.2C112.147 241.2 116.387 235.28 116.387 224.64C116.387 214 112.147 208.4 104.627 208.4C98.3866 208.4 92.7866 213.36 92.7866 224.8Z" fill="white"/>
<path d="M41.728 245.76L56.848 224L42.688 203.68H50.768L61.088 218.88H61.248L71.408 203.68H79.248L65.088 224L80.128 245.76H72.128L60.848 229.28H60.688L49.568 245.76H41.728Z" fill="white"/>
<path d="M22.0799 246.96C9.9199 246.96 2.3999 238.32 2.3999 224.8C2.3999 211.28 9.4399 202.64 21.4399 202.64C35.2799 202.64 39.3599 214.56 39.3599 226.64H9.5199C10.0799 235.68 14.8799 241.12 22.0799 241.12C27.9999 241.12 31.9199 237.28 33.0399 230.72L39.1199 232.32C37.9199 239.92 32.3199 246.96 22.0799 246.96ZM9.6799 221.04H32.3199C32.2399 213.76 28.3199 208.48 21.5199 208.48C15.1999 208.48 10.6399 212.56 9.6799 221.04Z" fill="white"/>
<path d="M1574.69 246.96C1564.77 246.96 1558.45 242.72 1557.65 233.6L1563.81 232.08C1563.65 237.28 1567.33 241.12 1574.93 241.12C1580.37 241.12 1583.65 239.12 1583.65 234.64C1583.65 230.8 1580.69 228.56 1574.21 227.52C1562.77 225.76 1559.65 220.88 1559.65 214.88C1559.65 207.92 1564.21 202.64 1573.41 202.64C1583.49 202.64 1588.53 206.8 1589.33 215.12L1583.25 216.64C1582.93 211.12 1579.81 208.48 1573.73 208.48C1569.01 208.48 1566.45 210.72 1566.45 214.32C1566.45 218 1568.69 220.08 1575.81 221.36C1586.37 223.2 1590.45 227.84 1590.45 234.4C1590.45 241.44 1584.93 246.96 1574.69 246.96Z" fill="white"/>
<path d="M1536.74 246.96C1524.58 246.96 1517.06 238.32 1517.06 224.8C1517.06 211.28 1524.1 202.64 1536.1 202.64C1549.94 202.64 1554.02 214.56 1554.02 226.64H1524.18C1524.74 235.68 1529.54 241.12 1536.74 241.12C1542.66 241.12 1546.58 237.28 1547.7 230.72L1553.78 232.32C1552.58 239.92 1546.98 246.96 1536.74 246.96ZM1524.34 221.04H1546.98C1546.9 213.76 1542.98 208.48 1536.18 208.48C1529.86 208.48 1525.3 212.56 1524.34 221.04Z" fill="white"/>
<path d="M1506.27 246.96C1493.95 246.96 1493.79 238.88 1493.79 230.8V209.12L1487.39 209.28V203.68H1493.79V190.16H1500.83V203.68H1513.79V209.28L1500.83 209.12V231.76C1500.83 238 1501.79 241.2 1506.99 241.2C1509.95 241.2 1512.11 240.64 1513.47 240.16L1514.75 245.36C1512.27 246.32 1509.39 246.96 1506.27 246.96Z" fill="white"/>
<path d="M1475.17 245.76L1475.33 224.72L1475.17 203.68H1482.21L1482.05 224.72L1482.21 245.76H1475.17ZM1474.37 194.32C1474.37 191.44 1475.81 190 1478.69 190C1481.57 190 1483.01 191.44 1483.01 194.32C1483.01 197.28 1481.57 198.72 1478.69 198.72C1475.81 198.72 1474.37 197.28 1474.37 194.32Z" fill="white"/>
<path d="M1452.66 246.96C1442.74 246.96 1436.42 242.72 1435.62 233.6L1441.78 232.08C1441.62 237.28 1445.3 241.12 1452.9 241.12C1458.34 241.12 1461.62 239.12 1461.62 234.64C1461.62 230.8 1458.66 228.56 1452.18 227.52C1440.74 225.76 1437.62 220.88 1437.62 214.88C1437.62 207.92 1442.18 202.64 1451.38 202.64C1461.46 202.64 1466.5 206.8 1467.3 215.12L1461.22 216.64C1460.9 211.12 1457.78 208.48 1451.7 208.48C1446.98 208.48 1444.42 210.72 1444.42 214.32C1444.42 218 1446.66 220.08 1453.78 221.36C1464.34 223.2 1468.42 227.84 1468.42 234.4C1468.42 241.44 1462.9 246.96 1452.66 246.96Z" fill="white"/>
<path d="M1412.28 246.96C1400.2 246.96 1392.68 238.4 1392.68 224.72C1392.68 211.12 1400.2 202.64 1412.28 202.64C1424.44 202.64 1432.04 211.12 1432.04 224.72C1432.04 238.4 1424.44 246.96 1412.28 246.96ZM1399.72 224.72C1399.72 235.12 1404.52 241.12 1412.28 241.12C1420.12 241.12 1425 235.12 1425 224.72C1425 214.48 1420.12 208.48 1412.28 208.48C1404.52 208.48 1399.72 214.48 1399.72 224.72Z" fill="white"/>
<path d="M1350.17 258.56L1350.33 227.84L1350.17 203.68H1357.45L1357.29 209.92H1357.45C1359.05 206.8 1363.37 202.64 1370.73 202.64C1381.69 202.64 1387.85 210.4 1387.85 224.64C1387.85 238.88 1381.69 246.96 1370.73 246.96C1363.37 246.96 1359.13 242.56 1357.37 239.36H1357.21L1357.45 258.56H1350.17ZM1357.21 224.8C1357.21 238 1364.01 241.2 1369.05 241.2C1376.57 241.2 1380.81 235.28 1380.81 224.64C1380.81 214 1376.57 208.4 1369.05 208.4C1362.81 208.4 1357.21 213.36 1357.21 224.8Z" fill="white"/>
<path d="M1304.86 258.56L1305.02 227.84L1304.86 203.68H1312.14L1311.98 209.92H1312.14C1313.74 206.8 1318.06 202.64 1325.42 202.64C1336.38 202.64 1342.54 210.4 1342.54 224.64C1342.54 238.88 1336.38 246.96 1325.42 246.96C1318.06 246.96 1313.82 242.56 1312.06 239.36H1311.9L1312.14 258.56H1304.86ZM1311.9 224.8C1311.9 238 1318.7 241.2 1323.74 241.2C1331.26 241.2 1335.5 235.28 1335.5 224.64C1335.5 214 1331.26 208.4 1323.74 208.4C1317.5 208.4 1311.9 213.36 1311.9 224.8Z" fill="white"/>
<path d="M1277.52 246.96C1265.44 246.96 1257.92 238.4 1257.92 224.72C1257.92 211.12 1265.44 202.64 1277.52 202.64C1289.68 202.64 1297.28 211.12 1297.28 224.72C1297.28 238.4 1289.68 246.96 1277.52 246.96ZM1264.96 224.72C1264.96 235.12 1269.76 241.12 1277.52 241.12C1285.36 241.12 1290.24 235.12 1290.24 224.72C1290.24 214.48 1285.36 208.48 1277.52 208.48C1269.76 208.48 1264.96 214.48 1264.96 224.72Z" fill="white"/>
</svg>
