<svg width="604" height="650" viewBox="0 0 604 650" fill="none" xmlns="http://www.w3.org/2000/svg">
<path d="M375.938 563.542C362.137 563.542 354.337 555.542 354.337 547.642L362.438 545.342C362.438 552.142 367.437 556.542 375.938 556.542C388.838 556.542 390.638 547.542 390.638 537.042V534.442H390.438C388.437 538.342 383.137 543.742 373.837 543.742C360.137 543.742 352.438 533.842 352.438 518.042C352.438 504.242 359.538 492.342 373.638 492.342C383.038 492.342 388.338 497.642 390.438 501.542H390.638L390.538 493.642H399.538V534.842C399.538 554.842 392.138 563.542 375.938 563.542ZM361.237 518.042C361.237 529.242 366.538 536.542 375.638 536.542C382.438 536.542 390.737 532.642 390.737 518.042C390.737 509.942 386.738 499.542 375.638 499.542C367.038 499.542 361.237 506.842 361.237 518.042Z" fill="white"/>
<path d="M299.102 546.242L299.302 520.842L299.102 493.642H307.902L307.702 501.642H307.902C310.502 496.642 316.402 492.342 324.902 492.342C336.502 492.342 342.902 499.142 342.902 514.742V520.842L343.102 546.242H334.302L334.502 520.842V514.842C334.502 504.342 329.602 499.742 322.302 499.742C314.302 499.742 307.702 506.542 307.702 516.942V520.842L307.902 546.242H299.102Z" fill="white"/>
<path d="M277.324 546.242L277.524 519.942L277.324 493.642H286.124L285.924 519.942L286.124 546.242H277.324ZM276.324 481.942C276.324 478.342 278.124 476.542 281.724 476.542C285.324 476.542 287.124 478.342 287.124 481.942C287.124 485.642 285.324 487.442 281.724 487.442C278.124 487.442 276.324 485.642 276.324 481.942Z" fill="white"/>
<path d="M241.777 546.242L241.977 520.942L241.777 493.642H250.577L250.277 501.942H250.477C252.277 497.042 257.677 492.342 265.877 492.342C266.977 492.342 268.477 492.442 269.777 492.742L269.677 501.042C267.977 500.542 266.577 500.342 265.377 500.342C255.977 500.342 250.377 506.642 250.377 519.342V520.842L250.577 546.242H241.777Z" fill="white"/>
<path d="M207.602 547.742C192.502 547.742 183.102 537.042 183.102 519.942C183.102 502.942 192.502 492.342 207.602 492.342C222.802 492.342 232.302 502.942 232.302 519.942C232.302 537.042 222.802 547.742 207.602 547.742ZM191.902 519.942C191.902 532.942 197.902 540.442 207.602 540.442C217.402 540.442 223.502 532.942 223.502 519.942C223.502 507.142 217.402 499.642 207.602 499.642C197.902 499.642 191.902 507.142 191.902 519.942Z" fill="white"/>
<path d="M164.824 546.242L165.024 511.042L164.824 476.842H173.624L173.424 511.042L173.624 546.242H164.824Z" fill="white"/>
<path d="M108.184 562.242L108.384 523.842L108.184 493.642H117.284L117.084 501.442H117.284C119.284 497.542 124.684 492.342 133.884 492.342C147.584 492.342 155.284 502.042 155.284 519.842C155.284 537.642 147.584 547.742 133.884 547.742C124.684 547.742 119.384 542.242 117.184 538.242H116.984L117.284 562.242H108.184ZM116.984 520.042C116.984 536.542 125.484 540.542 131.784 540.542C141.184 540.542 146.484 533.142 146.484 519.842C146.484 506.542 141.184 499.542 131.784 499.542C123.984 499.542 116.984 505.742 116.984 520.042Z" fill="white"/>
<path d="M53.1602 546.242L72.0602 519.042L54.3602 493.642H64.4602L77.3602 512.642H77.5602L90.2602 493.642H100.06L82.3602 519.042L101.16 546.242H91.1602L77.0602 525.642H76.8602L62.9602 546.242H53.1602Z" fill="white"/>
<path d="M28.6 547.742C13.4 547.742 4 536.942 4 520.042C4 503.142 12.8 492.342 27.8 492.342C45.1 492.342 50.2 507.242 50.2 522.342H12.9C13.6 533.642 19.6 540.442 28.6 540.442C36 540.442 40.9 535.642 42.3 527.442L49.9 529.442C48.4 538.942 41.4 547.742 28.6 547.742ZM13.1 515.342H41.4C41.3 506.242 36.4 499.642 27.9 499.642C20 499.642 14.3 504.742 13.1 515.342Z" fill="white"/>
<path d="M579.972 635.442C567.572 635.442 559.672 630.142 558.672 618.742L566.372 616.842C566.172 623.342 570.772 628.142 580.272 628.142C587.072 628.142 591.172 625.642 591.172 620.042C591.172 615.242 587.472 612.442 579.372 611.142C565.072 608.942 561.172 602.842 561.172 595.342C561.172 586.642 566.872 580.042 578.372 580.042C590.972 580.042 597.272 585.242 598.272 595.642L590.672 597.542C590.272 590.642 586.372 587.342 578.772 587.342C572.872 587.342 569.672 590.142 569.672 594.642C569.672 599.242 572.472 601.842 581.372 603.442C594.572 605.742 599.672 611.542 599.672 619.742C599.672 628.542 592.772 635.442 579.972 635.442Z" fill="white"/>
<path d="M532.526 635.442C517.326 635.442 507.926 624.642 507.926 607.742C507.926 590.842 516.726 580.042 531.726 580.042C549.026 580.042 554.126 594.942 554.126 610.042H516.826C517.526 621.342 523.526 628.142 532.526 628.142C539.926 628.142 544.826 623.342 546.226 615.142L553.826 617.142C552.326 626.642 545.326 635.442 532.526 635.442ZM517.026 603.042H545.326C545.226 593.942 540.326 587.342 531.826 587.342C523.926 587.342 518.226 592.442 517.026 603.042Z" fill="white"/>
<path d="M494.444 635.442C479.044 635.442 478.844 625.342 478.844 615.242V588.142L470.844 588.342V581.342H478.844V564.442H487.644V581.342H503.844V588.342L487.644 588.142V616.442C487.644 624.242 488.844 628.242 495.344 628.242C499.044 628.242 501.744 627.542 503.444 626.942L505.044 633.442C501.944 634.642 498.344 635.442 494.444 635.442Z" fill="white"/>
<path d="M455.566 633.942L455.766 607.642L455.566 581.342H464.366L464.166 607.642L464.366 633.942H455.566ZM454.566 569.642C454.566 566.042 456.366 564.242 459.966 564.242C463.566 564.242 465.366 566.042 465.366 569.642C465.366 573.342 463.566 575.142 459.966 575.142C456.366 575.142 454.566 573.342 454.566 569.642Z" fill="white"/>
<path d="M427.433 635.442C415.033 635.442 407.133 630.142 406.133 618.742L413.833 616.842C413.633 623.342 418.233 628.142 427.733 628.142C434.533 628.142 438.633 625.642 438.633 620.042C438.633 615.242 434.933 612.442 426.833 611.142C412.533 608.942 408.633 602.842 408.633 595.342C408.633 586.642 414.333 580.042 425.833 580.042C438.433 580.042 444.733 585.242 445.733 595.642L438.133 597.542C437.733 590.642 433.833 587.342 426.233 587.342C420.333 587.342 417.133 590.142 417.133 594.642C417.133 599.242 419.933 601.842 428.833 603.442C442.033 605.742 447.133 611.542 447.133 619.742C447.133 628.542 440.233 635.442 427.433 635.442Z" fill="white"/>
<path d="M376.957 635.442C361.857 635.442 352.457 624.742 352.457 607.642C352.457 590.642 361.857 580.042 376.957 580.042C392.157 580.042 401.657 590.642 401.657 607.642C401.657 624.742 392.157 635.442 376.957 635.442ZM361.257 607.642C361.257 620.642 367.257 628.142 376.957 628.142C386.757 628.142 392.857 620.642 392.857 607.642C392.857 594.842 386.757 587.342 376.957 587.342C367.257 587.342 361.257 594.842 361.257 607.642Z" fill="white"/>
<path d="M299.316 649.942L299.516 611.542L299.316 581.342H308.416L308.216 589.142H308.416C310.416 585.242 315.816 580.042 325.016 580.042C338.716 580.042 346.416 589.742 346.416 607.542C346.416 625.342 338.716 635.442 325.016 635.442C315.816 635.442 310.516 629.942 308.316 625.942H308.116L308.416 649.942H299.316ZM308.116 607.742C308.116 624.242 316.616 628.242 322.916 628.242C332.316 628.242 337.616 620.842 337.616 607.542C337.616 594.242 332.316 587.242 322.916 587.242C315.116 587.242 308.116 593.442 308.116 607.742Z" fill="white"/>
<path d="M242.676 649.942L242.876 611.542L242.676 581.342H251.776L251.576 589.142H251.776C253.776 585.242 259.176 580.042 268.376 580.042C282.076 580.042 289.776 589.742 289.776 607.542C289.776 625.342 282.076 635.442 268.376 635.442C259.176 635.442 253.876 629.942 251.676 625.942H251.476L251.776 649.942H242.676ZM251.476 607.742C251.476 624.242 259.976 628.242 266.276 628.242C275.676 628.242 280.976 620.842 280.976 607.542C280.976 594.242 275.676 587.242 266.276 587.242C258.476 587.242 251.476 593.442 251.476 607.742Z" fill="white"/>
<path d="M208.5 635.442C193.4 635.442 184 624.742 184 607.642C184 590.642 193.4 580.042 208.5 580.042C223.7 580.042 233.2 590.642 233.2 607.642C233.2 624.742 223.7 635.442 208.5 635.442ZM192.8 607.642C192.8 620.642 198.8 628.142 208.5 628.142C218.3 628.142 224.4 620.642 224.4 607.642C224.4 594.842 218.3 587.342 208.5 587.342C198.8 587.342 192.8 594.842 192.8 607.642Z" fill="white"/>
<path d="M603.296 312.176V230.955C603.296 194.014 587.871 178.349 559.01 178.349C539.683 178.349 528.179 187.157 520.838 198.9H520.355V181.767H483.651V222.629C476.632 196.688 459.235 178.59 425.809 178.59C398.034 178.59 377.742 192.063 368.41 215.088C360.445 190.575 342.445 178.349 319.317 178.349C300.713 178.349 288.485 188.383 282.371 197.191H281.888L282.13 181.788H244.943V222.629C237.924 196.688 220.527 178.59 187.101 178.59C157.396 178.59 136.258 194.014 127.932 220.015V142.373V100.546C127.932 81.2212 136.821 68.9948 152.488 68.9948C166.446 68.9948 174.028 77.8027 174.028 95.901V171.492H210.732V90.2704C210.732 82.287 210.008 75.289 208.58 69.2361H223.081V123.069C223.081 152.428 224.067 175.172 264.934 175.172C275.211 175.172 286.474 172.98 295.283 169.782L290.858 154.017C302.282 167.51 319.457 175.151 340.595 175.151C372.814 175.151 389.346 157.737 396.365 139.055L396.245 171.471H432.949L432.707 116.432V110.319C432.707 85.605 443.709 73.1373 465.751 73.1373C468.929 73.1373 472.348 73.3786 476.511 74.364L476.752 38.4087C475.043 37.926 472.107 37.6847 469.894 37.6847C448.616 37.6847 437.353 49.6698 432.707 60.931H432.225L432.949 41.1234H396.245L396.385 82.5484C389.467 56.3059 372.07 37.9461 338.403 37.9461C314.651 37.9461 296.389 47.7997 285.75 65.0534V41.1234H259.323V8.56655H223.101V41.1033H205.242V59.2619C198.404 44.361 185.291 37.6847 166.446 37.6847C147.601 37.6847 135.614 46.4926 128.274 58.2364H127.791V41.1033H90.765V142.394V197.191H90.2823C83.6856 188.625 71.9402 178.349 53.5781 178.349C21.5197 178.349 0 201.354 0 247.102C0 292.851 22.0225 315.856 53.5781 315.856C71.9201 315.856 83.9269 305.58 90.0409 296.772H90.765V337.875H90.2823C83.6856 329.309 71.9402 319.033 53.5781 319.033C21.5197 319.033 0 342.038 0 387.787C0 433.535 22.0225 456.54 53.5781 456.54C71.9201 456.54 83.9269 446.264 90.0409 437.456H90.765V452.86H127.952V414.13C136.58 440.553 158.803 456.52 189.333 456.52C221.351 456.52 237.883 439.286 244.963 420.746V452.86H281.667V381.915C281.667 362.59 290.717 350.343 306.385 350.343C320.342 350.343 327.924 359.151 327.924 377.249V452.84H364.629V413.969C373.156 440.714 395.52 456.52 427.116 456.52C454.066 456.52 472.167 444.696 480.916 426.597C491.776 445.48 511.425 456.52 536.786 456.52C574.959 456.52 591.109 432.047 595.513 410.027L564.44 401.702C561.504 416.864 552.212 427.884 537.772 427.884C521.622 427.884 509.877 417.609 507.664 395.348H596.237C596.237 353.52 580.57 319.254 534.574 319.254C509.897 319.254 491.132 329.892 480.714 348.413C471.845 330.656 453.664 319.013 426.151 319.013C394.897 319.013 372.533 335.241 364.287 362.61C361.893 332.124 346.749 319.013 320.342 319.013C301.015 319.013 289.511 327.821 282.17 339.565H282.069L281.687 296.752H282.17C288.767 305.319 300.773 315.836 319.357 315.836C342.868 315.836 360.707 303.308 368.55 278.573C378.264 301.92 399.563 315.836 428.041 315.836C460.06 315.836 476.592 298.602 483.671 280.061V312.176H520.375V241.23C520.375 221.905 529.425 209.659 545.093 209.659C559.03 209.659 566.632 218.467 566.632 236.565V312.156H603.337L603.296 312.176ZM339.811 66.0589C355.478 66.0589 364.025 76.0934 365.011 91.9998H312.157C315.576 72.1922 326.356 66.0589 339.811 66.0589ZM396.405 114.019L396.345 127.915L368.188 120.374C365.252 135.536 355.96 146.556 341.52 146.556C325.37 146.556 313.625 136.28 311.413 114.019H396.385H396.405ZM259.283 69.2361H283.316C278.047 79.532 275.231 92.0601 275.231 106.418C275.231 120.776 278.449 134.088 284.342 144.606C281.727 145.249 278.53 145.792 274.467 145.792C262.963 145.792 259.303 139.196 259.303 124.255V69.216L259.283 69.2361ZM536.002 347.407C551.669 347.407 560.217 357.442 561.202 373.348H508.348C511.767 353.52 522.547 347.407 536.002 347.407ZM426.573 348.393C440.531 348.393 450.064 357.442 452.759 374.092L473.253 368.663C472.026 374.595 471.383 380.99 471.383 387.787C471.383 394.583 472.046 400.797 473.313 406.689L452.739 401.24C450.044 418.131 440.008 427.181 426.553 427.181C409.921 427.181 397.934 414.451 397.934 387.787C397.934 361.122 409.921 348.393 426.553 348.393H426.573ZM188.549 206.743C204.216 206.743 212.764 216.778 213.749 232.684H160.895C164.314 212.876 175.094 206.743 188.549 206.743ZM244.923 254.683V268.539L216.927 261.038C213.991 276.2 204.699 287.22 190.258 287.22C174.109 287.22 162.363 276.944 160.171 254.683H244.923ZM64.0564 285.511C46.4384 285.511 36.9053 272.058 36.9053 247.102C36.9053 222.147 46.4384 208.694 64.0564 208.694C79.2207 208.694 90.9661 220.679 90.9661 246.861C90.9661 276.703 77.0285 285.511 64.0564 285.511ZM64.0564 426.195C46.4384 426.195 36.9053 412.742 36.9053 387.787C36.9053 362.831 46.4384 349.378 64.0564 349.378C79.2207 349.378 90.9661 361.363 90.9661 387.545C90.9661 417.387 77.0285 426.195 64.0564 426.195ZM127.912 360.699V273.445C136.54 299.869 158.763 315.836 189.293 315.836C221.311 315.836 237.843 298.602 244.923 280.061V363.293C237.904 337.353 220.507 319.254 187.081 319.254C157.376 319.254 136.238 334.678 127.912 360.679V360.699ZM213.749 373.348H160.895C164.314 353.52 175.094 347.407 188.549 347.407C204.216 347.407 212.764 357.442 213.749 373.348ZM216.947 401.722C214.011 416.885 204.719 427.904 190.279 427.904C174.129 427.904 162.383 417.629 160.191 395.368H244.943V409.223L216.947 401.722ZM308.798 285.511C295.584 285.511 281.647 276.462 281.647 247.102C281.647 220.92 293.634 208.694 308.798 208.694C326.175 208.694 335.708 221.905 335.708 246.861C335.708 271.817 326.175 285.511 308.798 285.511ZM427.277 206.743C442.944 206.743 451.492 216.778 452.477 232.684H399.623C403.042 212.876 413.822 206.743 427.277 206.743ZM455.655 261.058C452.719 276.22 443.427 287.24 428.987 287.24C412.837 287.24 401.091 276.965 398.899 254.704H483.651V268.559L455.655 261.058Z" fill="white"/>
<path d="M63.6742 34.4873C78.3558 34.4873 84.7112 29.3595 84.7112 17.3543C84.7112 5.34906 78.3558 0 63.6742 0C48.9925 0 42.6371 5.63059 42.6371 17.3744C42.6371 29.1182 49.2338 34.5074 63.6742 34.5074V34.4873Z" fill="white"/>
<path d="M45.3119 44.2805V107.162L45.0706 171.512H82.0161V44.2805C72.7244 46.2311 54.6036 46.2311 45.3119 44.2805Z" fill="white"/>
</svg>
